<mxfile host="app.diagrams.net" agent="Mozilla/5.0 (Windows NT 10.0; Win64; x64) AppleWebKit/537.36 (KHTML, like Gecko) Chrome/138.0.0.0 Safari/537.36" version="28.0.7">
  <diagram name="Page-1" id="ZjnyPUnzgYvCqEHnjcgc">
    <mxGraphModel dx="3153" dy="1877" grid="1" gridSize="10" guides="1" tooltips="1" connect="1" arrows="1" fold="1" page="1" pageScale="1" pageWidth="850" pageHeight="1100" math="0" shadow="0">
      <root>
        <mxCell id="0" />
        <mxCell id="1" parent="0" />
        <mxCell id="N88H89xDmh1QKZXqZNir-2" value="Halaman Login" style="whiteSpace=wrap;strokeWidth=2;" vertex="1" parent="1">
          <mxGeometry x="1783" y="350" width="165" height="54" as="geometry" />
        </mxCell>
        <mxCell id="N88H89xDmh1QKZXqZNir-3" value="Validasi Credential" style="rhombus;strokeWidth=2;whiteSpace=wrap;" vertex="1" parent="1">
          <mxGeometry x="1772" y="454" width="188" height="188" as="geometry" />
        </mxCell>
        <mxCell id="N88H89xDmh1QKZXqZNir-4" value="Cek Role" style="rhombus;strokeWidth=2;whiteSpace=wrap;" vertex="1" parent="1">
          <mxGeometry x="1631" y="642" width="116" height="116" as="geometry" />
        </mxCell>
        <mxCell id="N88H89xDmh1QKZXqZNir-5" value="Login GagalÂ &#xa;Menampilan Pesan Error" style="whiteSpace=wrap;strokeWidth=2;" vertex="1" parent="1">
          <mxGeometry x="1926" y="650" width="260" height="78" as="geometry" />
        </mxCell>
        <mxCell id="N88H89xDmh1QKZXqZNir-6" value="Dashboard Super Admin" style="whiteSpace=wrap;strokeWidth=2;" vertex="1" parent="1">
          <mxGeometry x="797" y="903" width="228" height="54" as="geometry" />
        </mxCell>
        <mxCell id="N88H89xDmh1QKZXqZNir-7" value="Dashboard Kabid" style="whiteSpace=wrap;strokeWidth=2;" vertex="1" parent="1">
          <mxGeometry x="1604" y="903" width="179" height="54" as="geometry" />
        </mxCell>
        <mxCell id="N88H89xDmh1QKZXqZNir-8" value="Dashboard Peliput" style="whiteSpace=wrap;strokeWidth=2;" vertex="1" parent="1">
          <mxGeometry x="1963" y="903" width="189" height="54" as="geometry" />
        </mxCell>
        <mxCell id="N88H89xDmh1QKZXqZNir-9" value="Kelola Berita" style="whiteSpace=wrap;strokeWidth=2;" vertex="1" parent="1">
          <mxGeometry x="690" y="1190" width="152" height="54" as="geometry" />
        </mxCell>
        <mxCell id="N88H89xDmh1QKZXqZNir-10" value="Kelola Informasi" style="whiteSpace=wrap;strokeWidth=2;" vertex="1" parent="1">
          <mxGeometry x="500" y="1100" width="175" height="54" as="geometry" />
        </mxCell>
        <mxCell id="N88H89xDmh1QKZXqZNir-11" value="Kelola Agenda" style="whiteSpace=wrap;strokeWidth=2;" vertex="1" parent="1">
          <mxGeometry x="380" y="930" width="160" height="54" as="geometry" />
        </mxCell>
        <mxCell id="N88H89xDmh1QKZXqZNir-12" value="Kelola Profil" style="whiteSpace=wrap;strokeWidth=2;" vertex="1" parent="1">
          <mxGeometry x="837.5" y="1100" width="147" height="54" as="geometry" />
        </mxCell>
        <mxCell id="N88H89xDmh1QKZXqZNir-13" value="Kelola Layanan Publik" style="whiteSpace=wrap;strokeWidth=2;" vertex="1" parent="1">
          <mxGeometry x="1040" y="1030" width="216" height="54" as="geometry" />
        </mxCell>
        <mxCell id="N88H89xDmh1QKZXqZNir-14" value="Kelola Data User" style="whiteSpace=wrap;strokeWidth=2;" vertex="1" parent="1">
          <mxGeometry x="1301" y="1007" width="178" height="54" as="geometry" />
        </mxCell>
        <mxCell id="N88H89xDmh1QKZXqZNir-15" value="Tambah/Edit/Hapus Berita" style="whiteSpace=wrap;strokeWidth=2;" vertex="1" parent="1">
          <mxGeometry x="640" y="1294" width="251" height="54" as="geometry" />
        </mxCell>
        <mxCell id="N88H89xDmh1QKZXqZNir-16" value="Lihat Daftar Berita" style="whiteSpace=wrap;strokeWidth=2;" vertex="1" parent="1">
          <mxGeometry x="1596.5" y="1007" width="194" height="54" as="geometry" />
        </mxCell>
        <mxCell id="N88H89xDmh1QKZXqZNir-17" value="Review &amp; Koreksi Berita" style="whiteSpace=wrap;strokeWidth=2;" vertex="1" parent="1">
          <mxGeometry x="1578" y="1111" width="231" height="54" as="geometry" />
        </mxCell>
        <mxCell id="N88H89xDmh1QKZXqZNir-18" value="Buat Berita Baru" style="whiteSpace=wrap;strokeWidth=2;" vertex="1" parent="1">
          <mxGeometry x="1968.5" y="1007" width="178" height="54" as="geometry" />
        </mxCell>
        <mxCell id="N88H89xDmh1QKZXqZNir-19" value="Lihat Berita" style="whiteSpace=wrap;strokeWidth=2;" vertex="1" parent="1">
          <mxGeometry x="2201" y="1007" width="199" height="54" as="geometry" />
        </mxCell>
        <mxCell id="N88H89xDmh1QKZXqZNir-20" value="Logout" style="whiteSpace=wrap;strokeWidth=2;" vertex="1" parent="1">
          <mxGeometry x="1791" y="1440" width="108" height="54" as="geometry" />
        </mxCell>
        <mxCell id="N88H89xDmh1QKZXqZNir-21" value="" style="curved=1;startArrow=none;endArrow=block;exitX=0.5;exitY=1;entryX=0.5;entryY=0;rounded=0;" edge="1" parent="1" source="N88H89xDmh1QKZXqZNir-2" target="N88H89xDmh1QKZXqZNir-3">
          <mxGeometry relative="1" as="geometry">
            <Array as="points" />
          </mxGeometry>
        </mxCell>
        <mxCell id="N88H89xDmh1QKZXqZNir-22" value="Berhasil" style="curved=0;startArrow=none;endArrow=block;rounded=0;exitX=0.009;exitY=0.5;exitDx=0;exitDy=0;exitPerimeter=0;entryX=0.5;entryY=0;entryDx=0;entryDy=0;" edge="1" parent="1" source="N88H89xDmh1QKZXqZNir-3" target="N88H89xDmh1QKZXqZNir-4">
          <mxGeometry x="-0.5109" y="1" relative="1" as="geometry">
            <Array as="points">
              <mxPoint x="1689" y="548" />
            </Array>
            <mxPoint x="1771" y="550" as="sourcePoint" />
            <mxPoint x="1689" y="640" as="targetPoint" />
            <mxPoint as="offset" />
          </mxGeometry>
        </mxCell>
        <mxCell id="N88H89xDmh1QKZXqZNir-23" value="Gagal" style="curved=0;startArrow=none;endArrow=block;exitX=1;exitY=0.5;entryX=0.484;entryY=-0.036;rounded=0;exitDx=0;exitDy=0;entryDx=0;entryDy=0;entryPerimeter=0;" edge="1" parent="1" source="N88H89xDmh1QKZXqZNir-3" target="N88H89xDmh1QKZXqZNir-5">
          <mxGeometry x="-0.5689" relative="1" as="geometry">
            <Array as="points">
              <mxPoint x="2051" y="548" />
            </Array>
            <mxPoint as="offset" />
          </mxGeometry>
        </mxCell>
        <mxCell id="N88H89xDmh1QKZXqZNir-24" value="Super Admin" style="curved=0;startArrow=none;endArrow=block;exitX=0;exitY=0.5;entryX=0.5;entryY=0;rounded=0;exitDx=0;exitDy=0;" edge="1" parent="1" source="N88H89xDmh1QKZXqZNir-4" target="N88H89xDmh1QKZXqZNir-6">
          <mxGeometry x="-0.4366" relative="1" as="geometry">
            <Array as="points">
              <mxPoint x="911" y="700" />
              <mxPoint x="912" y="867" />
            </Array>
            <mxPoint as="offset" />
          </mxGeometry>
        </mxCell>
        <mxCell id="N88H89xDmh1QKZXqZNir-25" value="Kabid" style="curved=0;startArrow=none;endArrow=block;exitX=0.5;exitY=1;entryX=0.478;entryY=0.011;rounded=0;exitDx=0;exitDy=0;entryDx=0;entryDy=0;entryPerimeter=0;" edge="1" parent="1" source="N88H89xDmh1QKZXqZNir-4" target="N88H89xDmh1QKZXqZNir-7">
          <mxGeometry relative="1" as="geometry">
            <Array as="points" />
          </mxGeometry>
        </mxCell>
        <mxCell id="N88H89xDmh1QKZXqZNir-26" value="Peliput" style="curved=0;startArrow=none;endArrow=block;exitX=1;exitY=0.5;entryX=0.5;entryY=0;rounded=0;exitDx=0;exitDy=0;" edge="1" parent="1" source="N88H89xDmh1QKZXqZNir-4" target="N88H89xDmh1QKZXqZNir-8">
          <mxGeometry relative="1" as="geometry">
            <Array as="points">
              <mxPoint x="1851" y="700" />
              <mxPoint x="2058" y="867" />
            </Array>
          </mxGeometry>
        </mxCell>
        <mxCell id="N88H89xDmh1QKZXqZNir-27" value="" style="curved=0;startArrow=none;endArrow=block;exitX=0;exitY=0.5;entryX=0.5;entryY=0;rounded=0;exitDx=0;exitDy=0;" edge="1" parent="1" source="N88H89xDmh1QKZXqZNir-6" target="N88H89xDmh1QKZXqZNir-9">
          <mxGeometry relative="1" as="geometry">
            <Array as="points">
              <mxPoint x="766" y="930" />
              <mxPoint x="766" y="1070" />
            </Array>
          </mxGeometry>
        </mxCell>
        <mxCell id="N88H89xDmh1QKZXqZNir-28" value="" style="curved=0;startArrow=none;endArrow=block;exitX=0;exitY=0.76;entryX=0.514;entryY=-0.007;rounded=0;entryDx=0;entryDy=0;entryPerimeter=0;" edge="1" parent="1" source="N88H89xDmh1QKZXqZNir-6" target="N88H89xDmh1QKZXqZNir-10">
          <mxGeometry relative="1" as="geometry">
            <Array as="points">
              <mxPoint x="590" y="944" />
            </Array>
          </mxGeometry>
        </mxCell>
        <mxCell id="N88H89xDmh1QKZXqZNir-29" value="" style="curved=0;startArrow=none;endArrow=block;exitX=0;exitY=1;entryX=1;entryY=0.5;rounded=0;exitDx=0;exitDy=0;entryDx=0;entryDy=0;" edge="1" parent="1" source="N88H89xDmh1QKZXqZNir-6" target="N88H89xDmh1QKZXqZNir-11">
          <mxGeometry relative="1" as="geometry">
            <Array as="points" />
          </mxGeometry>
        </mxCell>
        <mxCell id="N88H89xDmh1QKZXqZNir-30" value="" style="curved=1;startArrow=none;endArrow=block;exitX=0.5;exitY=1;entryX=0.5;entryY=0;rounded=0;" edge="1" parent="1" source="N88H89xDmh1QKZXqZNir-6" target="N88H89xDmh1QKZXqZNir-12">
          <mxGeometry relative="1" as="geometry">
            <Array as="points" />
          </mxGeometry>
        </mxCell>
        <mxCell id="N88H89xDmh1QKZXqZNir-31" value="" style="curved=0;startArrow=none;endArrow=block;rounded=0;exitX=1.001;exitY=0.851;exitDx=0;exitDy=0;exitPerimeter=0;" edge="1" parent="1" source="N88H89xDmh1QKZXqZNir-6">
          <mxGeometry relative="1" as="geometry">
            <Array as="points">
              <mxPoint x="1150" y="950" />
            </Array>
            <mxPoint x="1031" y="950" as="sourcePoint" />
            <mxPoint x="1150" y="1030" as="targetPoint" />
          </mxGeometry>
        </mxCell>
        <mxCell id="N88H89xDmh1QKZXqZNir-32" value="" style="curved=0;startArrow=none;endArrow=block;exitX=1;exitY=0.5;entryX=0.5;entryY=0;rounded=0;exitDx=0;exitDy=0;" edge="1" parent="1" source="N88H89xDmh1QKZXqZNir-6" target="N88H89xDmh1QKZXqZNir-14">
          <mxGeometry relative="1" as="geometry">
            <Array as="points">
              <mxPoint x="1391" y="930" />
            </Array>
          </mxGeometry>
        </mxCell>
        <mxCell id="N88H89xDmh1QKZXqZNir-33" value="" style="curved=1;startArrow=none;endArrow=block;exitX=0.5;exitY=1;entryX=0.5;entryY=0;rounded=0;" edge="1" parent="1" source="N88H89xDmh1QKZXqZNir-9" target="N88H89xDmh1QKZXqZNir-15">
          <mxGeometry relative="1" as="geometry">
            <Array as="points" />
          </mxGeometry>
        </mxCell>
        <mxCell id="N88H89xDmh1QKZXqZNir-35" value="" style="curved=1;startArrow=none;endArrow=block;exitX=0.5;exitY=1;entryX=0.5;entryY=0;rounded=0;" edge="1" parent="1" source="N88H89xDmh1QKZXqZNir-16" target="N88H89xDmh1QKZXqZNir-17">
          <mxGeometry relative="1" as="geometry">
            <Array as="points" />
          </mxGeometry>
        </mxCell>
        <mxCell id="N88H89xDmh1QKZXqZNir-36" value="" style="curved=0;startArrow=none;endArrow=block;exitX=0.466;exitY=0.998;entryX=0.463;entryY=-0.017;rounded=0;exitDx=0;exitDy=0;entryDx=0;entryDy=0;exitPerimeter=0;entryPerimeter=0;" edge="1" parent="1" source="N88H89xDmh1QKZXqZNir-8" target="N88H89xDmh1QKZXqZNir-18">
          <mxGeometry relative="1" as="geometry">
            <Array as="points">
              <mxPoint x="2051" y="980" />
            </Array>
          </mxGeometry>
        </mxCell>
        <mxCell id="N88H89xDmh1QKZXqZNir-37" value="" style="curved=0;startArrow=none;endArrow=block;exitX=1;exitY=0.5;entryX=0.5;entryY=0;rounded=0;exitDx=0;exitDy=0;entryDx=0;entryDy=0;" edge="1" parent="1" source="N88H89xDmh1QKZXqZNir-8" target="N88H89xDmh1QKZXqZNir-19">
          <mxGeometry relative="1" as="geometry">
            <Array as="points">
              <mxPoint x="2301" y="930" />
            </Array>
          </mxGeometry>
        </mxCell>
        <mxCell id="N88H89xDmh1QKZXqZNir-38" value="" style="curved=0;startArrow=none;endArrow=block;exitX=1.004;exitY=0.347;entryX=0;entryY=0.75;rounded=0;exitDx=0;exitDy=0;exitPerimeter=0;entryDx=0;entryDy=0;" edge="1" parent="1" source="N88H89xDmh1QKZXqZNir-6" target="N88H89xDmh1QKZXqZNir-20">
          <mxGeometry relative="1" as="geometry">
            <Array as="points">
              <mxPoint x="1491" y="920" />
              <mxPoint x="1491" y="1480" />
            </Array>
          </mxGeometry>
        </mxCell>
        <mxCell id="N88H89xDmh1QKZXqZNir-39" value="" style="curved=0;startArrow=none;endArrow=block;exitX=0;exitY=0.5;entryX=0.01;entryY=0.431;rounded=0;exitDx=0;exitDy=0;entryDx=0;entryDy=0;entryPerimeter=0;" edge="1" parent="1" source="N88H89xDmh1QKZXqZNir-7" target="N88H89xDmh1QKZXqZNir-20">
          <mxGeometry relative="1" as="geometry">
            <Array as="points">
              <mxPoint x="1531" y="930" />
              <mxPoint x="1531" y="1460" />
            </Array>
          </mxGeometry>
        </mxCell>
        <mxCell id="N88H89xDmh1QKZXqZNir-40" value="" style="curved=0;startArrow=none;endArrow=block;exitX=0;exitY=0.5;rounded=0;exitDx=0;exitDy=0;entryX=0.5;entryY=0;entryDx=0;entryDy=0;" edge="1" parent="1" source="N88H89xDmh1QKZXqZNir-8" target="N88H89xDmh1QKZXqZNir-20">
          <mxGeometry relative="1" as="geometry">
            <Array as="points">
              <mxPoint x="1845" y="930" />
            </Array>
            <mxPoint x="1911" y="1470" as="targetPoint" />
          </mxGeometry>
        </mxCell>
        <mxCell id="N88H89xDmh1QKZXqZNir-45" value="" style="curved=0;startArrow=none;endArrow=block;exitX=0.474;exitY=0.992;entryX=0.476;entryY=0.009;rounded=0;exitDx=0;exitDy=0;entryDx=0;entryDy=0;exitPerimeter=0;entryPerimeter=0;" edge="1" parent="1" source="N88H89xDmh1QKZXqZNir-7" target="N88H89xDmh1QKZXqZNir-16">
          <mxGeometry relative="1" as="geometry">
            <Array as="points">
              <mxPoint x="1688.8500000000001" y="981" />
            </Array>
            <mxPoint x="1688.8500000000001" y="958" as="sourcePoint" />
            <mxPoint x="1688.8500000000001" y="1007" as="targetPoint" />
          </mxGeometry>
        </mxCell>
      </root>
    </mxGraphModel>
  </diagram>
</mxfile>
